<svg width="30" height="30" viewBox="0 0 30 30" fill="none" xmlns="http://www.w3.org/2000/svg">
<g opacity="0.75">
<path d="M0.421486 3.51376C0.554492 2.22583 1.39891 1.20636 2.66531 0.93676C4.66426 0.511214 8.43238 0 15 0C21.5676 0 25.3357 0.511214 27.3347 0.93676C28.6011 1.20636 29.4455 2.22583 29.5785 3.51377C29.7757 5.42339 30 8.92958 30 15C30 21.0704 29.7757 24.5766 29.5785 26.4862C29.4455 27.7742 28.6011 28.7936 27.3347 29.0632C25.3357 29.4888 21.5676 30 15 30C8.43237 30 4.66426 29.4888 2.66531 29.0632C1.39891 28.7936 0.554492 27.7742 0.421486 26.4862C0.224277 24.5766 0 21.0704 0 15C0 8.92957 0.224278 5.42339 0.421486 3.51376Z" fill="#98C8FF"/>
<path fill-rule="evenodd" clip-rule="evenodd" d="M29.8542 7.5H0.14502C0.224531 5.72741 0.325952 4.43486 0.421074 3.51376C0.55408 2.22583 1.3985 1.20636 2.6649 0.93676C4.66385 0.511214 8.43196 0 14.9996 0C21.5672 0 25.3353 0.511214 27.3343 0.93676C28.6007 1.20636 29.4451 2.22583 29.5781 3.51377C29.6732 4.43486 29.7746 5.72741 29.8542 7.5Z" fill="#0578FF"/>
<path d="M5.25 13.5C5.25 12.6716 5.92157 12 6.75 12H8.25C9.07843 12 9.75 12.6716 9.75 13.5V15C9.75 15.8284 9.07843 16.5 8.25 16.5H6.75C5.92157 16.5 5.25 15.8284 5.25 15V13.5Z" fill="#0578FF"/>
<path d="M5.25 21C5.25 20.1716 5.92157 19.5 6.75 19.5H8.25C9.07843 19.5 9.75 20.1716 9.75 21V22.5C9.75 23.3284 9.07843 24 8.25 24H6.75C5.92157 24 5.25 23.3284 5.25 22.5V21Z" fill="#0578FF"/>
<path d="M12.75 13.5C12.75 12.6716 13.4216 12 14.25 12H15.75C16.5784 12 17.25 12.6716 17.25 13.5V15C17.25 15.8284 16.5784 16.5 15.75 16.5H14.25C13.4216 16.5 12.75 15.8284 12.75 15V13.5Z" fill="#0578FF"/>
<path d="M12.75 21C12.75 20.1716 13.4216 19.5 14.25 19.5H15.75C16.5784 19.5 17.25 20.1716 17.25 21V22.5C17.25 23.3284 16.5784 24 15.75 24H14.25C13.4216 24 12.75 23.3284 12.75 22.5V21Z" fill="#0578FF"/>
<path d="M20.25 13.5C20.25 12.6716 20.9216 12 21.75 12H23.25C24.0784 12 24.75 12.6716 24.75 13.5V15C24.75 15.8284 24.0784 16.5 23.25 16.5H21.75C20.9216 16.5 20.25 15.8284 20.25 15V13.5Z" fill="#0578FF"/>
</g>
</svg>
