<svg width="30" height="30" viewBox="0 0 30 30" fill="none" xmlns="http://www.w3.org/2000/svg">
<path d="M0.0593295 14.265C0.225871 13.3074 1.2196 12.9399 2.1909 12.9049C4.02104 12.8389 7.81802 12.75 15 12.75C22.182 12.75 25.979 12.8389 27.8091 12.9049C28.7804 12.9399 29.7741 13.3074 29.9407 14.265C29.9776 14.4772 30 14.7209 30 15C30 15.2791 29.9776 15.5228 29.9407 15.735C29.7741 16.6926 28.7804 17.0601 27.8091 17.0951C25.979 17.1611 22.182 17.25 15 17.25C7.81802 17.25 4.02104 17.1611 2.1909 17.0951C1.2196 17.0601 0.225871 16.6926 0.0593294 15.735C0.0224255 15.5228 0 15.2791 0 15C0 14.7209 0.0224255 14.4772 0.0593295 14.265Z" fill="#0578FF" fill-opacity="0.75"/>
<circle cx="9.75" cy="15" r="5.25" fill="#0578FF"/>
<path d="M29.9407 4.51499C29.7741 3.55743 28.7804 3.18994 27.8091 3.15489C25.979 3.08886 22.182 3 15 3C7.81802 3 4.02103 3.08886 2.1909 3.15489C1.21959 3.18994 0.22587 3.55743 0.0593281 4.51499C0.0224247 4.72718 0 4.97093 0 5.25C0 5.52907 0.0224247 5.77282 0.0593281 5.98501C0.22587 6.94257 1.21959 7.31006 2.1909 7.34511C4.02104 7.41114 7.81802 7.5 15 7.5C22.182 7.5 25.979 7.41114 27.8091 7.34511C28.7804 7.31006 29.7741 6.94257 29.9407 5.98501C29.9776 5.77282 30 5.52907 30 5.25C30 4.97093 29.9776 4.72718 29.9407 4.51499Z" fill="#0578FF" fill-opacity="0.75"/>
<circle cx="5.25" cy="5.25" r="5.25" transform="matrix(-1 0 0 1 25.5 0)" fill="#0578FF"/>
<path d="M29.9407 24.015C29.7741 23.0574 28.7804 22.6899 27.8091 22.6549C25.979 22.5889 22.182 22.5 15 22.5C7.81802 22.5 4.02103 22.5889 2.1909 22.6549C1.21959 22.6899 0.22587 23.0574 0.0593281 24.015C0.0224247 24.2272 0 24.4709 0 24.75C0 25.0291 0.0224247 25.2728 0.0593281 25.485C0.22587 26.4426 1.21959 26.8101 2.1909 26.8451C4.02104 26.9111 7.81802 27 15 27C22.182 27 25.979 26.9111 27.8091 26.8451C28.7804 26.8101 29.7741 26.4426 29.9407 25.485C29.9776 25.2728 30 25.0291 30 24.75C30 24.4709 29.9776 24.2272 29.9407 24.015Z" fill="#0578FF" fill-opacity="0.75"/>
<circle cx="5.25" cy="5.25" r="5.25" transform="matrix(-1 0 0 1 25.5 19.5)" fill="#0578FF"/>
</svg>
