<?xml version="1.0" encoding="UTF-8" standalone="no" ?>
<!DOCTYPE svg PUBLIC "-//W3C//DTD SVG 1.1//EN" "http://www.w3.org/Graphics/SVG/1.1/DTD/svg11.dtd">
<svg xmlns="http://www.w3.org/2000/svg" xmlns:xlink="http://www.w3.org/1999/xlink" version="1.1" width="1080" height="1080" viewBox="0 0 1080 1080" xml:space="preserve">
<desc>Created with Fabric.js 5.2.4</desc>
<defs>
</defs>
<g transform="matrix(1 0 0 1 540 540)" id="e8906cd5-9dd1-4c55-b7ac-6e26d1472c1b"  >
<rect style="stroke: none; stroke-width: 1; stroke-dasharray: none; stroke-linecap: butt; stroke-dashoffset: 0; stroke-linejoin: miter; stroke-miterlimit: 4; fill: rgb(255,255,255); fill-rule: nonzero; opacity: 1; visibility: hidden;" vector-effect="non-scaling-stroke"  x="-540" y="-540" rx="0" ry="0" width="1080" height="1080" />
</g>
<g transform="matrix(1 0 0 1 540 540)" id="112d5145-a59a-4a4a-bd7d-7cfae3fb65c6"  >
</g>
<g transform="matrix(6.39 0 0 6.63 522.01 563.13)"  >
<g style="" vector-effect="non-scaling-stroke"   >
		<g transform="matrix(1 0 0 1 34.75 -22.23)"  >
<path style="stroke: none; stroke-width: 1; stroke-dasharray: none; stroke-linecap: butt; stroke-dashoffset: 0; stroke-linejoin: miter; stroke-miterlimit: 4; fill: rgb(5,120,255); fill-rule: nonzero; opacity: 1;" vector-effect="non-scaling-stroke"  transform=" translate(-82.25, -49.95)" d="M 83.8 28.8 L 80.7 28.8 C 77.2 28.8 74.4 31.6 74.4 35.1 L 74.4 64.8 C 74.4 68.3 77.2 71.1 80.7 71.1 L 83.8 71.1 C 87.3 71.1 90.1 68.3 90.1 64.8 L 90.1 35.1 C 90.1 31.7 87.3 28.8 83.8 28.8 z M 88.2 64.9 C 88.2 67.30000000000001 86.2 69.30000000000001 83.8 69.30000000000001 L 80.7 69.30000000000001 C 78.3 69.30000000000001 76.3 67.30000000000001 76.3 64.9 L 76.3 35.1 C 76.3 32.7 78.3 30.700000000000003 80.7 30.700000000000003 L 83.8 30.700000000000003 C 86.2 30.700000000000003 88.2 32.7 88.2 35.1 L 88.2 64.9 z" stroke-linecap="round" />
</g>
		<g transform="matrix(1 0 0 1 2.5 -22.18)"  >
<path style="stroke: none; stroke-width: 1; stroke-dasharray: none; stroke-linecap: butt; stroke-dashoffset: 0; stroke-linejoin: miter; stroke-miterlimit: 4; fill: rgb(5,120,255); fill-rule: nonzero; opacity: 1;" vector-effect="non-scaling-stroke"  transform=" translate(-50, -50)" d="M 90 23.1 L 10 23.1 C 7.2 23.1 5 25.3 5 28.1 L 5 71.9 C 5 74.7 7.2 76.9 10 76.9 L 90 76.9 C 92.8 76.9 95 74.7 95 71.9 L 95 28.1 C 95 25.4 92.8 23.1 90 23.1 z M 93.1 71.9 C 93.1 73.60000000000001 91.69999999999999 75 90 75 L 10 75 C 8.3 75 6.9 73.6 6.9 71.9 L 6.9 28.1 C 6.9 26.400000000000002 8.3 25 10 25 L 90 25 C 91.7 25 93.1 26.4 93.1 28.1 L 93.1 71.9 z" stroke-linecap="round" />
</g>
		<g transform="matrix(1 0 0 1 -4.99 41.25)" style=""  >
		<text xml:space="preserve" font-family="'Helvetica Neue', Helvetica, Arial-Unicode, Arial, Sans-serif" font-size="5" font-style="normal" font-weight="bold" style="stroke: none; stroke-width: 1; stroke-dasharray: none; stroke-linecap: butt; stroke-dashoffset: 0; stroke-linejoin: miter; stroke-miterlimit: 4; fill: rgb(5,120,255); fill-rule: nonzero; opacity: 1; white-space: pre;" ><tspan x="-42.51" y="1.57" >Created by Cryssac Franson Aldo.E</tspan></text>
</g>
		<g transform="matrix(1 0 0 1 -21.25 46.25)" style=""  >
		<text xml:space="preserve" font-family="'Helvetica Neue', Helvetica, Arial-Unicode, Arial, Sans-serif" font-size="5" font-style="normal" font-weight="bold" style="stroke: none; stroke-width: 1; stroke-dasharray: none; stroke-linecap: butt; stroke-dashoffset: 0; stroke-linejoin: miter; stroke-miterlimit: 4; fill: rgb(5,120,255); fill-rule: nonzero; opacity: 1; white-space: pre;" ><tspan x="-26.25" y="1.57" >from the Noun Project</tspan></text>
</g>
</g>
</g>
<g transform="matrix(NaN NaN NaN NaN 0 0)"  >
<g style=""   >
</g>
</g>
</svg>