<svg width="16" height="16" viewBox="0 0 16 16" fill="none" xmlns="http://www.w3.org/2000/svg">
<path d="M7.07139 15.4394C6.4291 15.3484 6.05745 14.7791 6.03417 14.1308C6.00612 13.3498 5.97421 12.0579 5.9609 10.0391C3.94209 10.0258 2.65021 9.99388 1.86916 9.96583C1.22088 9.94255 0.6516 9.5709 0.560635 8.92861C0.524623 8.67434 0.5 8.36648 0.5 8C0.5 7.63352 0.524623 7.32566 0.560635 7.07139C0.6516 6.4291 1.22088 6.05745 1.86916 6.03417C2.65021 6.00612 3.94209 5.97422 5.9609 5.9609C5.97421 3.94209 6.00612 2.65021 6.03417 1.86916C6.05745 1.22088 6.4291 0.6516 7.07139 0.560635C7.32566 0.524623 7.63352 0.5 8 0.5C8.36648 0.5 8.67434 0.524623 8.92861 0.560635C9.5709 0.6516 9.94255 1.22088 9.96583 1.86916C9.99388 2.65021 10.0258 3.94209 10.0391 5.9609C12.0579 5.97422 13.3498 6.00612 14.1308 6.03417C14.7791 6.05745 15.3484 6.4291 15.4394 7.07139C15.4754 7.32566 15.5 7.63352 15.5 8C15.5 8.36648 15.4754 8.67434 15.4394 8.92861C15.3484 9.5709 14.7791 9.94255 14.1308 9.96583C13.3498 9.99388 12.0579 10.0258 10.0391 10.0391C10.0258 12.0579 9.99388 13.3498 9.96583 14.1308C9.94255 14.7791 9.5709 15.3484 8.92861 15.4394C8.67434 15.4754 8.36648 15.5 8 15.5C7.63352 15.5 7.32566 15.4754 7.07139 15.4394Z" fill="#0578FF"/>
</svg>
