<svg width="306" height="7" viewBox="0 0 306 7" fill="none" xmlns="http://www.w3.org/2000/svg">
<path d="M0.333333 3.5C0.333333 4.97276 1.52724 6.16667 3 6.16667C4.47276 6.16667 5.66667 4.97276 5.66667 3.5C5.66667 2.02724 4.47276 0.833333 3 0.833333C1.52724 0.833333 0.333333 2.02724 0.333333 3.5ZM300.333 3.5C300.333 4.97276 301.527 6.16667 303 6.16667C304.473 6.16667 305.667 4.97276 305.667 3.5C305.667 2.02724 304.473 0.833333 303 0.833333C301.527 0.833333 300.333 2.02724 300.333 3.5ZM3 4H303V3H3V4Z" fill="#808080" fill-opacity="0.75"/>
</svg>
