<svg width="31" height="30" viewBox="0 0 31 30" fill="none" xmlns="http://www.w3.org/2000/svg">
<path d="M29.8525 0.27734C29.9847 0.409792 30.0751 0.57818 30.1125 0.761585C30.1498 0.94499 30.1325 1.13533 30.0626 1.30896L18.9474 29.0996C18.8494 29.3444 18.6858 29.5574 18.4746 29.7151C18.2635 29.8729 18.0129 29.9693 17.7504 29.9938C17.488 30.0183 17.2238 29.9699 16.9871 29.8539C16.7504 29.738 16.5503 29.5589 16.4087 29.3365L10.3382 19.7941L0.796937 13.7228C0.574055 13.5814 0.394563 13.3811 0.278269 13.1442C0.161975 12.9072 0.113399 12.6427 0.137901 12.3799C0.162403 12.117 0.25903 11.8661 0.417121 11.6547C0.575212 11.4433 0.788621 11.2797 1.0338 11.1819L28.821 0.0691055C28.9946 -0.000791931 29.1849 -0.0181379 29.3683 0.0192224C29.5517 0.0565826 29.7201 0.147003 29.8525 0.27925V0.27734ZM12.2446 19.2362L17.5185 27.5236L26.5594 4.91963L12.2446 19.2362ZM25.2089 3.56897L2.60778 12.6109L10.896 17.8837L25.2108 3.56897H25.2089Z" fill="white"/>
</svg>
