<svg width="454" height="7" viewBox="0 0 454 7" fill="none" xmlns="http://www.w3.org/2000/svg">
<path d="M0.333333 3.5C0.333333 4.97276 1.52724 6.16667 3 6.16667C4.47276 6.16667 5.66667 4.97276 5.66667 3.5C5.66667 2.02724 4.47276 0.833333 3 0.833333C1.52724 0.833333 0.333333 2.02724 0.333333 3.5ZM448.333 3.5C448.333 4.97276 449.527 6.16667 451 6.16667C452.473 6.16667 453.667 4.97276 453.667 3.5C453.667 2.02724 452.473 0.833333 451 0.833333C449.527 0.833333 448.333 2.02724 448.333 3.5ZM3 4H451V3H3V4Z" fill="#808080" fill-opacity="0.75"/>
</svg>
