<svg width="543" height="6" viewBox="0 0 543 6" fill="none" xmlns="http://www.w3.org/2000/svg">
<path d="M0.833333 3C0.833333 4.47276 2.02724 5.66667 3.5 5.66667C4.97276 5.66667 6.16667 4.47276 6.16667 3C6.16667 1.52724 4.97276 0.333333 3.5 0.333333C2.02724 0.333333 0.833333 1.52724 0.833333 3ZM536.833 3C536.833 4.47276 538.027 5.66667 539.5 5.66667C540.973 5.66667 542.167 4.47276 542.167 3C542.167 1.52724 540.973 0.333333 539.5 0.333333C538.027 0.333333 536.833 1.52724 536.833 3ZM3.5 3.5H539.5V2.5H3.5V3.5Z" fill="#808080" fill-opacity="0.75"/>
</svg>
