<svg width="31" height="30" viewBox="0 0 31 30" fill="none" xmlns="http://www.w3.org/2000/svg">
<path d="M29.8526 0.27734C29.9849 0.409792 30.0753 0.57818 30.1126 0.761585C30.15 0.94499 30.1326 1.13533 30.0627 1.30896L18.9475 29.0996C18.8495 29.3444 18.6859 29.5574 18.4748 29.7151C18.2636 29.8729 18.013 29.9693 17.7505 29.9938C17.4881 30.0183 17.224 29.9699 16.9872 29.8539C16.7505 29.738 16.5504 29.5589 16.4089 29.3365L10.3383 19.7941L0.797059 13.7228C0.574177 13.5814 0.394686 13.3811 0.278391 13.1442C0.162097 12.9072 0.113521 12.6427 0.138023 12.3799C0.162525 12.117 0.259152 11.8661 0.417243 11.6547C0.575334 11.4433 0.788743 11.2797 1.03392 11.1819L28.8211 0.0691055C28.9947 -0.000791931 29.1851 -0.0181379 29.3684 0.0192224C29.5518 0.0565826 29.7202 0.147003 29.8526 0.27925V0.27734ZM12.2447 19.2362L17.5187 27.5236L26.5595 4.91963L12.2447 19.2362ZM25.209 3.56897L2.6079 12.6109L10.8961 17.8837L25.2109 3.56897H25.209Z" fill="white"/>
</svg>
