<svg width="32" height="33" viewBox="0 0 32 33" fill="none" xmlns="http://www.w3.org/2000/svg">
<path d="M30.0175 16.5L31.786 13.4435C31.9986 13.0758 32.0564 12.6387 31.9467 12.2283C31.8371 11.818 31.569 11.468 31.2013 11.2553L28.1416 9.48675V5.96252C28.1416 5.53766 27.9729 5.13021 27.6724 4.82979C27.372 4.52937 26.9646 4.36059 26.5397 4.36059H23.0171L21.2502 1.30252C21.0368 0.935546 20.6874 0.667366 20.2778 0.556023C20.0746 0.500943 19.8625 0.48674 19.6538 0.514238C19.4451 0.541736 19.2439 0.610389 19.0619 0.716216L16.0022 2.48474L12.9426 0.714614C12.5746 0.502195 12.1374 0.44463 11.727 0.554583C11.3167 0.664536 10.9668 0.933 10.7543 1.30092L8.98582 4.36059H5.46319C5.03833 4.36059 4.63088 4.52937 4.33046 4.82979C4.03004 5.13021 3.86126 5.53766 3.86126 5.96252V9.48515L0.801588 11.2537C0.61902 11.3587 0.459001 11.4987 0.330726 11.6658C0.20245 11.8328 0.108445 12.0236 0.0541123 12.2271C-0.000220409 12.4306 -0.0138102 12.6428 0.0141236 12.8515C0.0420575 13.0603 0.110964 13.2615 0.216885 13.4435L1.98541 16.5L0.216885 19.5564C0.00541331 19.9245 -0.0519625 20.3613 0.057267 20.7715C0.166497 21.1817 0.433472 21.5321 0.799986 21.7463L3.85966 23.5148V27.0374C3.85966 27.4623 4.02844 27.8697 4.32885 28.1702C4.62927 28.4706 5.03673 28.6394 5.46159 28.6394H8.98582L10.7543 31.699C10.8962 31.9415 11.0987 32.1428 11.3419 32.2833C11.5851 32.4237 11.8607 32.4984 12.1416 32.5C12.4203 32.5 12.6975 32.4263 12.9442 32.2837L16.0006 30.5152L19.0603 32.2837C19.4282 32.4959 19.8651 32.5534 20.2753 32.4438C20.6855 32.3342 21.0355 32.0664 21.2486 31.699L23.0155 28.6394H26.5381C26.963 28.6394 27.3704 28.4706 27.6708 28.1702C27.9713 27.8697 28.14 27.4623 28.14 27.0374V23.5148L31.1997 21.7463C31.382 21.641 31.5417 21.5008 31.6697 21.3337C31.7977 21.1666 31.8916 20.9759 31.9459 20.7725C32.0002 20.5692 32.0139 20.3571 31.9862 20.1484C31.9585 19.9398 31.8899 19.7386 31.7844 19.5564L30.0175 16.5ZM11.9958 8.47434C12.6333 8.47455 13.2446 8.728 13.6953 9.17893C14.1459 9.62986 14.3989 10.2413 14.3987 10.8788C14.3985 11.5163 14.1451 12.1276 13.6941 12.5783C13.2432 13.0289 12.6317 13.2819 11.9942 13.2817C11.3567 13.2815 10.7454 13.028 10.2948 12.5771C9.84418 12.1262 9.59114 11.5147 9.59135 10.8772C9.59156 10.2397 9.84501 9.62842 10.2959 9.17779C10.7469 8.72717 11.3583 8.47412 11.9958 8.47434ZM12.4764 23.8528L9.91333 21.9321L19.5249 9.11671L22.088 11.0374L12.4764 23.8528ZM20.0055 24.4936C19.6898 24.4935 19.3773 24.4312 19.0857 24.3103C18.7941 24.1894 18.5292 24.0123 18.306 23.789C18.0829 23.5657 17.9059 23.3007 17.7852 23.009C17.6645 22.7173 17.6025 22.4047 17.6026 22.0891C17.6027 21.7734 17.665 21.4609 17.7858 21.1693C17.9067 20.8777 18.0839 20.6128 18.3072 20.3897C18.5304 20.1665 18.7955 19.9896 19.0871 19.8689C19.3788 19.7482 19.6914 19.6861 20.0071 19.6862C20.6446 19.6864 21.2559 19.9399 21.7065 20.3908C22.1571 20.8417 22.4102 21.4532 22.4099 22.0907C22.4097 22.7282 22.1563 23.3395 21.7054 23.7901C21.2544 24.2408 20.643 24.4938 20.0055 24.4936Z" fill="#0578FF"/>
</svg>
