<svg width="34" height="34" viewBox="0 0 34 34" fill="none" xmlns="http://www.w3.org/2000/svg">
<path d="M32 2.01681C32 2.01681 29.2482 4.00971 27.7182 4.57482C26.8969 3.41704 25.8055 2.59645 24.5914 2.224C23.3774 1.85156 22.0993 1.94525 20.9301 2.49239C19.7609 3.03953 18.757 4.01373 18.0541 5.28323C17.3512 6.55272 16.9832 8.05627 17 9.59051V11.2624C14.6036 11.3386 12.229 10.687 10.0877 9.36555C7.94647 8.04414 6.10498 6.09396 4.72727 3.68871C4.72727 3.68871 -0.727273 18.7358 11.5455 25.4234C8.73708 27.7606 5.39158 28.9326 2 28.7672C14.2727 37.1267 29.2727 28.7672 29.2727 9.54035C29.2727 9.07556 29.2345 8.61078 29.1636 8.15268C30.5545 6.47075 32 2.01681 32 2.01681Z" stroke="white" stroke-width="2.5" stroke-linecap="round" stroke-linejoin="round"/>
</svg>
